<?xml version="1.0" encoding="UTF-8"?>
<svg width="769px" height="30px" viewBox="0 0 769 30" version="1.1" xmlns="http://www.w3.org/2000/svg" xmlns:xlink="http://www.w3.org/1999/xlink">
    <!-- Generator: Sketch 51.3 (57544) - http://www.bohemiancoding.com/sketch -->
    <title>logobar-lg</title>
    <desc>Created with Sketch.</desc>
    <defs></defs>
    <g id="Symbols" stroke="none" stroke-width="1" fill="none" fill-rule="evenodd">
        <g id="Logobar/Standard/LG" transform="translate(-196.000000, -31.000000)">
            <g id="logobar-lg">
                <g transform="translate(25.000000, 30.000000)">
                    <g transform="translate(171.000000, 1.000000)">
                        <path d="M54.4431613,18.7450143 C55.7824636,18.7450143 56.7567608,18.1821124 57.3413392,17.5939333 L58.7775959,19.1795862 C57.8280125,20.17706 56.5134241,20.9188461 54.4669246,20.9188461 C50.9613554,20.9188461 48.6962331,18.540853 48.6962331,15.318993 C48.6962331,12.1224103 51.0830238,9.71914005 54.1494462,9.71914005 C57.6322026,9.71914005 59.605511,12.4286522 59.4353654,16.1881369 L51.2046921,16.1881369 C51.4955556,17.7485126 52.5668072,18.7450143 54.4431613,18.7450143 Z M56.9516203,14.3983228 C56.7310964,12.9409999 55.8803685,11.8676948 54.1751107,11.8676948 C52.5924717,11.8676948 51.4955556,12.7873929 51.2046921,14.3983228 L56.9516203,14.3983228 Z M0,18.6281562 L6.3353086,12.0463845 L0.148283292,12.0463845 L0.148283292,9.98143868 L9.27055737,9.98143868 L9.27055737,12.0891612 L2.93524876,18.6709329 L9.35515486,18.6709329 L9.35515486,20.7358787 L0,20.7358787 L0,18.6281562 Z M16.866369,18.7450143 C18.2056713,18.7450143 19.1809191,18.1821124 19.7645469,17.5939333 L21.2017543,19.1795862 C20.2521708,20.17706 18.9366318,20.9188461 16.8910829,20.9188461 C13.3845633,20.9188461 11.1194409,18.540853 11.1194409,15.318993 C11.1194409,12.1224103 13.5062316,9.71914005 16.5736046,9.71914005 C20.0563608,9.71914005 22.0296692,12.4286522 21.8585731,16.1881369 L13.6278999,16.1881369 C13.9197138,17.7485126 14.9909656,18.7450143 16.866369,18.7450143 Z M19.3757785,14.3983228 C19.1552547,12.9409999 18.3045269,11.8676948 16.5983184,11.8676948 C15.0156795,11.8676948 13.9197138,12.7873929 13.6278999,14.3983228 L19.3757785,14.3983228 Z M35.5363761,15.3257012 C35.5363761,11.8841248 38.0495878,9.73265354 40.816592,9.73265354 C42.2100748,9.73265354 43.5398717,10.3568039 44.3212107,11.3465001 L44.3212107,5 L46.5616191,5 L46.5616191,20.7038934 L44.3212107,20.7038934 L44.3212107,19.219349 C43.51896,20.2732103 42.1882125,20.9187488 40.7937792,20.9187488 C38.112323,20.9187488 35.5363761,18.7458892 35.5363761,15.3257012 Z M44.4485822,15.3043129 C44.4485822,13.3900576 43.0341877,11.8189877 41.1112576,11.8189877 C39.2330025,11.8189877 37.7748835,13.3463087 37.7748835,15.3043129 C37.7748835,17.2613449 39.2330025,18.8100542 41.1112576,18.8100542 C43.0341877,18.8100542 44.4485822,17.2399566 44.4485822,15.3043129 Z M60.7422545,18.4231199 L62.7687928,17.3478704 C63.3400637,18.3365945 64.2687353,18.917968 65.4730618,18.917968 C66.7410741,18.917968 67.3940909,18.2520133 67.3940909,17.4985609 C67.3940909,16.6381668 66.1698032,16.4437274 64.8400063,16.164707 C63.0434971,15.7768005 61.1861538,15.1750107 61.1861538,12.9603466 C61.1861538,11.2599746 62.7687928,9.68987689 65.2620433,9.71126522 C67.2248958,9.71126522 68.6830149,10.5074944 69.5071278,11.7975994 L67.6260212,12.8524328 C67.1412489,12.0989803 66.317136,11.6255206 65.2620433,11.6255206 C64.0577168,11.6255206 63.4465235,12.2282825 63.4465235,12.9165978 C63.4465235,13.6914386 64.4170186,13.9053218 65.9378729,14.2504517 C67.6687952,14.637386 69.6335488,15.2177874 69.6335488,17.4557842 C69.6335488,18.9393564 68.3664871,20.9401372 65.366602,20.9187488 C63.1718192,20.9187488 61.6300532,20.0155782 60.7422545,18.4231199 Z M75.462508,15.9280743 L73.6888117,17.9074668 L73.6888117,20.7035045 L71.4503043,20.7035045 L71.4503043,5.0005833 L73.6888117,5.0005833 L73.6888117,15.2825357 L78.4405308,9.9480924 L81.164761,9.9480924 L77.0460975,14.5514438 L81.2702703,20.7035045 L78.7361469,20.7035045 L75.462508,15.9280743 Z M28.8715174,9.73080636 C31.5330124,9.73080636 33.7610639,11.4943712 33.7610639,14.4206833 L33.7610639,20.7030184 L31.4797825,20.7030184 L31.4797825,14.7113701 C31.4797825,12.9478053 30.6338073,11.8919997 28.9447085,11.8919997 C27.2565602,11.8919997 26.2642028,12.9478053 26.2642028,14.7113701 L26.2642028,20.7030184 L23.9829214,20.7030184 L23.9829214,14.4206833 C23.9829214,11.4943712 26.210973,9.73080636 28.8715174,9.73080636 Z" id="logo-zendesk" fill="#A0A0A0" fill-rule="nonzero"></path>
                        <path d="M673.059692,14.0596919 C673.058209,17.7069555 673.059692,21.3527364 673.058209,25 L684,25 L684,14.0596919 C680.352736,14.0596919 676.705473,14.0582092 673.059692,14.0596919 Z M661,14.0582092 L661,25 L671.941791,25 L671.941791,14.0596919 C668.294527,14.0582092 664.647264,14.0596919 661,14.0582092 Z M753.796171,14.3443563 C753.676078,13.7513054 753.413653,13.1641849 752.940695,12.769806 C752.426223,12.3176046 751.713079,12.164894 751.044414,12.2108554 C750.389093,12.2464385 749.741185,12.5296203 749.317153,13.0396442 C748.853091,13.5852511 748.654419,14.305808 748.599562,15.0085735 C748.544704,15.7350609 748.599562,16.4852704 748.881261,17.1643138 C749.114033,17.7336428 749.557339,18.2273577 750.128151,18.469026 C750.658931,18.6973506 751.254947,18.7373816 751.821311,18.6543544 C752.349127,18.5757752 752.860633,18.3237285 753.204603,17.9100754 C753.545607,17.4964224 753.725005,16.9789854 753.816928,16.4571005 C753.93109,15.758783 753.93109,15.0397086 753.796171,14.3443563 Z M756.31812,15.4667053 C756.319603,16.6617031 755.99639,17.887836 755.249146,18.835235 C754.54638,19.7529814 753.471476,20.3489976 752.338748,20.5358087 C751.231225,20.7152066 750.05995,20.6692451 749.005802,20.2541095 C747.93831,19.8345259 747.051699,18.9760846 746.602462,17.9204538 C746.133952,16.8455489 746.085025,15.6342422 746.230323,14.4866886 C746.383034,13.3376523 746.903436,12.2138207 747.790047,11.4487849 C748.518017,10.8112551 749.452072,10.449494 750.405402,10.3264359 C751.587056,10.1811384 752.841359,10.2597177 753.917746,10.8053246 C754.857732,11.2738348 755.585702,12.1233804 755.950429,13.1048798 C756.235093,13.8550893 756.334429,14.6660865 756.31812,15.4667053 Z M735.048347,14.9418552 C734.989041,14.1975762 734.777026,13.4177142 734.229936,12.8795204 C733.71843,12.3620834 732.960807,12.1619287 732.250629,12.2093728 C731.685747,12.2390253 731.113453,12.4302843 730.69387,12.8231806 C730.115645,13.3480307 729.851737,14.1278927 729.780571,14.886998 C729.700509,15.7202346 729.758332,16.6009154 730.139367,17.3629859 C730.435892,17.9530716 730.980017,18.4156514 731.623477,18.5861535 C732.253594,18.7492426 732.941533,18.7344163 733.552375,18.5001612 C734.072778,18.2970412 734.487913,17.8670792 734.713273,17.358538 C735.054277,16.6038806 735.08986,15.7573003 735.048347,14.9418552 Z M737.469477,15.9396635 C737.398311,16.968607 737.073616,17.9990331 736.428673,18.8174434 C735.770386,19.6862631 734.777026,20.2748662 733.712499,20.4942951 C732.803649,20.6840714 731.851802,20.6840714 730.942951,20.4913299 C729.854703,20.26004 728.846516,19.6284407 728.208986,18.7092116 C727.458777,17.6446851 727.246761,16.2910462 727.341649,15.0159866 C727.406885,13.9336685 727.743441,12.8424547 728.434345,11.9929092 C729.190485,11.042545 730.352865,10.4806291 731.544898,10.3294011 C732.68059,10.1870689 733.878553,10.2508219 734.932702,10.7297106 C735.847483,11.141881 736.588796,11.9054342 736.999484,12.8187327 C737.438342,13.7913363 737.543609,14.8840327 737.469477,15.9396635 Z M708.0156,10.513247 C708.018565,13.8091278 708.0156,17.1050087 708.017082,20.3994069 L710.367047,20.3994069 C710.370012,17.1064913 710.361116,13.8120931 710.370012,10.5162122 C709.587185,10.5028686 708.79991,10.5087991 708.0156,10.513247 Z M724.993167,10.6615097 C724.401599,10.9980661 724.025011,11.595565 723.771482,12.2108554 C723.772965,11.6444917 723.769999,11.078128 723.772965,10.513247 C722.994585,10.5087991 722.216206,10.5058338 721.437826,10.5147296 C721.442274,13.8106105 721.437826,17.1064913 721.439309,20.3994069 L723.771482,20.3994069 C723.772965,18.8248566 723.771482,17.2473409 723.771482,15.6713079 C723.752208,14.986334 723.808548,14.2776381 724.109521,13.6519693 C724.38529,13.060401 724.917553,12.5459292 725.589183,12.4688326 C726.140721,12.4124927 726.721911,12.542964 727.188938,12.8439373 C727.190421,12.0536969 727.187456,11.2649391 727.190421,10.4761813 C726.477277,10.2374782 725.648488,10.2686134 724.993167,10.6615097 Z M741.361374,10.3501579 C740.436215,10.5147296 739.528847,10.9965835 739.005479,11.7972023 C738.550313,12.4851415 738.491008,13.3702701 738.679301,14.1560627 C738.80829,14.6912912 739.132985,15.1642493 739.562947,15.5008058 C740.176755,15.9693161 740.909173,16.2317411 741.604525,16.5460581 C741.976665,16.7195256 742.371044,16.8974409 742.639399,17.2221363 C742.925546,17.6402372 742.838071,18.3266937 742.356217,18.5653968 C741.852124,18.807065 741.263521,18.8040998 740.723845,18.7166248 C739.946948,18.5817057 739.213047,18.2510797 738.575517,17.7899826 C738.568104,18.5505705 738.575517,19.3141236 738.572552,20.0776768 C739.328692,20.4127506 740.155998,20.5758396 740.978856,20.6292142 C742.136788,20.6722104 743.395539,20.446851 744.270289,19.6284407 C745.186553,18.8189261 745.407465,17.3837427 744.887062,16.2984594 C744.609811,15.718752 744.077548,15.31696 743.530458,15.0100561 C742.836589,14.6067814 742.034487,14.4170051 741.36434,13.967769 C740.972926,13.7201702 740.860246,13.1730806 741.021853,12.7579449 C741.22349,12.3368787 741.709792,12.1500677 742.153097,12.1322762 C743.02933,12.1026236 743.912976,12.3680139 744.636498,12.8661768 C744.636498,12.1411719 744.637981,11.4176497 744.636498,10.6926449 C743.600142,10.2997486 742.455553,10.1574164 741.361374,10.3501579 Z M715.513247,10.5013859 C714.465029,10.8038419 713.502804,11.4458196 712.887514,12.3561529 C712.153613,13.4206794 711.894153,14.7520789 711.951976,16.0271385 C712.009798,17.2532714 712.493135,18.4779217 713.384194,19.3378457 C714.204087,20.1340166 715.333849,20.562496 716.466576,20.6232837 C717.574099,20.6766583 718.734996,20.5283955 719.70167,19.9531361 C719.692774,19.2385096 719.703152,18.5253658 719.695739,17.8092568 C719.071553,18.265906 718.343583,18.5935667 717.572617,18.6810417 C716.791272,18.7403468 715.956553,18.5520531 715.359054,18.0227551 C714.785277,17.533488 714.479856,16.7951396 714.402759,16.0567911 C714.300458,15.1123574 714.436859,14.0893444 715.02991,13.3168955 C715.489525,12.694192 716.224908,12.2953652 716.995874,12.2256817 C717.965513,12.1041062 718.932186,12.4732805 719.695739,13.0544704 C719.703152,12.2998131 719.689809,11.5466383 719.703152,10.7934635 C719.491136,10.6689228 719.262812,10.5769999 719.028557,10.5102817 C717.886934,10.1885515 716.65487,10.1752079 715.513247,10.5013859 Z M690.86753,6.60059305 C690.866048,11.1997035 690.866048,15.8032618 690.86753,20.4023722 C691.61774,20.4008896 693.118159,20.4023722 693.118159,20.4023722 L693.131503,9.7600722 C693.131503,9.7600722 693.213047,9.89647393 693.250113,9.96912267 C694.652678,13.4458841 696.046348,16.928576 697.45781,20.4023722 C698.024173,20.3919938 698.59202,20.423129 699.158383,20.4023722 C700.517953,16.9256108 701.911623,13.450332 703.278605,9.97505318 C703.314188,9.89943918 703.403146,9.75562432 703.403146,9.75562432 L703.413524,20.4023722 C703.413524,20.4023722 705.005866,20.3994069 705.802037,20.4023722 C705.800554,15.8032618 705.799072,11.2011861 705.802037,6.60207568 C704.698962,6.60504093 703.594405,6.59169729 702.49133,6.60948882 C701.124347,10.0121189 699.724747,13.4028879 698.348869,16.8010701 C698.059756,16.1264746 695.379166,9.32121447 694.307226,6.60059305 L690.86753,6.60059305 Z M709.001547,6.30703281 C708.344743,6.38264681 707.78431,6.98014568 707.802101,7.6502933 C707.773932,8.28634049 708.285438,8.85715207 708.900728,8.96834913 C709.492297,9.09733772 710.17134,8.84677367 710.475279,8.3085799 C710.749565,7.83117385 710.681364,7.18030039 710.310707,6.77109521 C709.994907,6.39895571 709.477471,6.23586669 709.001547,6.30703281 Z M759.66441,6.17063108 C759.01502,6.58576678 758.542061,7.25294914 758.330046,7.99129762 C758.079482,8.80970799 758.206988,9.6740798 758.166957,10.513247 C757.618385,10.5087991 757.072778,10.5043512 756.527171,10.5162122 C756.533101,11.1492941 756.530136,11.7808934 756.528653,12.4124927 C757.077226,12.4228711 757.625798,12.4110101 758.17437,12.4213885 C758.169922,15.0797396 758.172887,17.7395733 758.172887,20.3994069 L760.539161,20.3994069 C760.539161,17.7395733 760.539161,15.0782569 760.540643,12.4184233 C761.694128,12.4169406 762.849094,12.4169406 764.004061,12.4184233 C764.007026,14.1130665 763.999613,15.8091923 764.005544,17.5038355 C764.017405,18.2940759 764.150841,19.1391736 764.674209,19.7633598 C765.127893,20.3148972 765.845484,20.5669439 766.540837,20.6188358 C767.271772,20.6692451 768.027912,20.5802875 768.70399,20.2867273 L768.70399,18.3474505 C768.185071,18.6929027 767.468962,18.8322697 766.90408,18.5149874 C766.566041,18.329659 766.43557,17.9308322 766.392574,17.5720364 C766.319925,16.9611938 766.352543,12.4213885 766.352543,12.4213885 C766.352543,12.4213885 767.91968,12.3991491 768.70399,12.4302843 L768.70399,10.5087991 C767.921163,10.5117643 767.141301,10.5043512 766.362921,10.5147296 C766.343647,9.52729968 766.359956,8.53986979 766.354026,7.55243989 C765.571198,7.78966028 764.795784,8.03725907 764.012957,8.26261845 C763.9922,9.01134532 764.011474,9.76155482 764.002578,10.5087991 C762.849094,10.5087991 761.694128,10.5102817 760.540643,10.5073164 C760.55547,9.91871334 760.500612,9.32417972 760.58364,8.73705924 C760.654806,8.27447947 760.923161,7.8118997 761.372397,7.63250177 C761.941726,7.39972926 762.577773,7.55392252 763.11745,7.79262554 C763.114485,7.11654741 763.12338,6.44046928 763.113002,5.76439116 C761.977309,5.45155676 760.67408,5.51234449 759.66441,6.17063108 Z M673.058209,2 C673.058209,5.64726359 673.058209,9.29452717 673.059692,12.9417908 L683.998517,12.9417908 C684,9.29452717 684,5.64726359 684,2 L673.058209,2 Z M661,2 L671.941791,2 C671.940308,5.64726359 671.941791,9.29452717 671.940308,12.9417908 L661,12.9417908 L661,2 Z" id="logo-windows" fill="#A0A0A0"></path>
                        <path d="M557.485447,2.89808542 C557.397104,3.70796603 557.397104,4.42964176 557.316792,5.15131757 C557.148138,7.58095932 556.89114,9.92239628 556.722486,12.3600567 C556.700654,13.6430244 556.500645,14.9167639 556.12818,16.1448452 C555.02791,19.1197532 552.996025,20.8277192 550.040555,21.188557 C548.512904,21.4361421 546.947326,21.1166699 545.639476,20.2904716 C543.944279,19.1356994 542.954568,17.1986534 543.013285,15.1505364 C543.010595,13.6766491 543.096415,12.2039266 543.270282,10.7402955 L543.776245,5.06311276 C543.856557,4.34143695 543.856557,3.70796603 543.9449,2.98629022 L547.326021,2.98629022 C547.24571,3.53155634 547.157367,4.25323215 547.077055,4.87868446 L546.571091,10.5558673 C546.482749,11.5501761 546.394405,12.5364663 546.314095,13.6189801 C546.256533,14.250539 546.283542,14.8869408 546.394405,15.5113743 C546.739746,17.4037685 548.177324,17.9490347 549.695215,17.7646064 C551.646789,17.4919733 552.82737,16.0566404 552.996025,13.8916131 C553.253022,11.1893382 553.51002,8.48706335 553.678674,5.68856508 C553.758986,4.79047966 553.847328,3.79617083 553.92764,2.80988061 C555.196565,2.89808542 556.296834,2.89808542 557.485447,2.89808542 Z M600.821622,20.8277192 L597.175472,20.8277192 C596.926506,19.9296338 596.669508,18.9353249 596.332199,18.0372395 L589.730581,18.0372395 C589.304929,18.9353249 588.887308,19.8414289 588.461656,20.8277192 L584.90385,20.8277192 C585.072504,20.0178386 594.043317,2.26461449 594.388657,2 C596.500854,8.30263514 598.621082,14.5250841 600.821622,20.8277192 Z M591.16816,14.8779033 L595.400585,14.8779033 C594.806278,12.8973042 594.300314,10.9167052 593.706008,8.93610606 C592.943047,10.9167052 592.097098,12.8973042 591.16816,14.8779033 Z M573.057879,3.89239425 C572.889224,5.32772717 572.800882,6.68287391 572.632227,8.03000203 C572.41702,7.87370724 572.22033,7.69346478 572.045952,7.49275452 C570.919776,6.40804307 569.368999,5.87919321 567.813527,6.04940298 C563.749757,6.2338312 562.223835,9.56957707 562.223835,12.4482615 C562.225711,13.1166268 562.312059,13.782084 562.480832,14.4288606 C562.92129,16.1793348 564.403034,17.4734366 566.199262,17.6764016 C568.231371,17.968027 570.279636,17.2634499 571.700612,15.7840073 C571.809251,15.7178298 571.898028,15.623652 571.957609,15.5113743 C571.788954,17.0429306 571.700612,18.3980774 571.6203,19.8414289 C570.681176,20.4104463 569.64758,20.8069444 568.568457,21.0121474 C566.781486,21.4146859 564.911719,21.2232147 563.243794,20.4668813 C560.782215,19.4080094 559.094903,17.093116 558.842714,14.4288606 C558.390072,11.4787716 559.116949,8.46925 560.866568,6.04940298 C562.291591,4.03665425 564.509238,2.72681528 566.962223,2.44904271 C568.725747,2.12637628 570.546748,2.4119652 572.126264,3.25892332 C572.551916,3.53155634 572.800882,3.70796603 573.057879,3.89239425 Z M584.654884,17.4919733 C584.56654,18.6626919 584.486229,19.7452055 584.317574,20.8277192 L574.158149,20.8277192 C574.752455,14.7896985 575.258418,8.84790126 575.764382,2.89808542 L579.153534,2.89808542 L577.88461,17.4919733 L584.654884,17.4919733 Z" id="logo-ucla" fill="#A0A0A0" fill-rule="nonzero"></path>
                        <path d="M244.595362,20.8816322 L242.319675,17.5353924 L240.014302,20.8816322 L236.926978,20.8816322 L240.754423,15.4333553 L237.155019,10.2129192 L240.413036,10.2129192 L242.461357,13.2448486 L244.538689,10.2129192 L247.626013,10.2129192 L243.984105,15.3612972 L247.854054,20.8816322 L244.595362,20.8816322 Z M226.968064,15.576099 C226.968064,12.2868193 229.087901,9.98439223 232.175224,9.98439223 C235.262549,9.98439223 237.368217,12.2724077 237.368217,15.576099 C237.368217,18.850967 235.248381,21.1389825 232.175224,21.1389825 C229.087901,21.1389825 226.968064,18.850967 226.968064,15.576099 Z M229.898863,15.576099 C229.898863,17.3350023 230.709825,18.6368516 232.175224,18.6368516 C233.640624,18.6368516 234.451586,17.349414 234.451586,15.576099 C234.451586,13.7883724 233.640624,12.501621 232.175224,12.501621 C230.695657,12.501621 229.898863,13.7883724 229.898863,15.576099 Z M218.432045,20.0093864 L218.432045,20.8672206 L215.458067,20.8672206 L215.458067,5.35071473 L218.432045,5.35071473 L218.432045,11.0851651 C218.901621,10.5135043 219.954117,9.96998058 221.092298,9.96998058 C224.179622,9.96998058 225.915567,12.501621 225.915567,15.5616874 C225.915567,18.6224399 224.179622,21.1252572 221.092298,21.1252572 C219.954117,21.1252572 218.901621,20.5817333 218.432045,20.0093864 Z M218.432045,13.7883724 L218.432045,17.2924537 C218.759264,18.0356813 219.541889,18.5366566 220.423693,18.5366566 C222.017281,18.5366566 222.9706,17.2492189 222.9706,15.5472757 C222.9706,13.8316073 222.017281,12.5441696 220.423693,12.5441696 C219.570226,12.5441696 218.759264,13.0732817 218.432045,13.7883724 Z M206.694681,20.0093864 L206.694681,24.8146307 L203.749714,24.8146307 L203.749714,10.1985076 L206.694681,10.1985076 L206.694681,11.0851651 C207.164257,10.5135043 208.216754,9.96998058 209.354935,9.96998058 C212.442259,9.96998058 214.192371,12.5441696 214.192371,15.5616874 C214.192371,18.5647935 212.442259,21.1252572 209.354935,21.1252572 C208.216754,21.1252572 207.164257,20.5817333 206.694681,20.0093864 Z M206.694681,13.7883724 L206.694681,17.2924537 C207.050236,18.0356813 207.832862,18.5366566 208.686329,18.5366566 C210.279918,18.5366566 211.233236,17.2492189 211.233236,15.5472757 C211.233236,13.8316073 210.279918,12.5441696 208.686329,12.5441696 C207.803851,12.5441696 207.050236,13.0732817 206.694681,13.7883724 Z M192.083192,15.5472757 C192.083192,12.2579961 194.203029,9.95556893 197.290352,9.95556893 C200.377676,9.95556893 202.483345,12.2435845 202.483345,15.5472757 C202.483345,18.8221438 200.377676,21.1108455 197.290352,21.1108455 C194.203029,21.1108455 192.083192,18.8221438 192.083192,15.5472757 Z M195.01399,15.5472757 C195.01399,17.3061791 195.824953,18.6080284 197.290352,18.6080284 C198.755751,18.6080284 199.566714,17.3205907 199.566714,15.5472757 C199.566714,13.7595492 198.755751,12.4727978 197.290352,12.4727978 C195.810785,12.4727978 195.01399,13.7595492 195.01399,15.5472757 Z M187.914359,14.2605244 L187.914359,20.8672206 L184.983561,20.8672206 L184.983561,10.1985076 L187.928528,10.1985076 L187.928528,11.2430066 C188.383935,10.4846811 189.25157,9.95556893 190.304742,9.95556893 C190.802654,9.95556893 191.258061,10.055764 191.414586,10.1415474 L191.414586,13.1165166 C191.015852,12.8728917 190.489604,12.7589713 189.935019,12.7589713 C188.939195,12.7589713 188.128233,13.2880834 187.914359,14.2605244 Z M171.25455,20.8534953 L171.25455,6.20854899 L176.405037,6.20854899 C180.815404,6.20854899 183.603845,9.06891145 183.603845,13.5310221 C183.603845,17.9931327 180.829572,20.8534953 176.405037,20.8534953 L171.25455,20.8534953 Z M174.270358,8.89734464 L174.270358,18.1791112 L176.291017,18.1791112 C179.06529,18.1791112 180.587363,16.3913847 180.587363,13.5454337 C180.587363,10.6850712 179.06529,8.89734464 176.291017,8.89734464 L174.270358,8.89734464 Z M154.46655,15.2473768 L162.163271,10.4565442 L167.456115,14.7182647 L159.816067,19.7232129 L154.46655,15.2473768 Z M141.448649,14.6606182 L146.754987,10.4565442 L154.46655,15.2473768 L149.117032,19.7232129 L141.448649,14.6606182 Z M149.117032,1.18918919 L154.46655,5.66502516 L146.754987,10.4565442 L141.448649,6.15158876 L149.117032,1.18918919 Z M167.456115,6.19413735 L162.163271,10.4565442 L154.46655,5.66502516 L159.816067,1.18918919 L167.456115,6.19413735 Z M159.844404,20.6819284 L162.134934,19.1796891 L162.134934,20.8672206 L154.480719,25.4864865 L146.812334,20.8672206 L146.812334,19.1796891 L149.117032,20.6819284 L154.480719,16.2054062 L159.844404,20.6819284 Z" id="logo-dropbox" fill="#A0A0A0" fill-rule="nonzero"></path>
                        <path d="M352.631241,7.29848704 C352.631241,8.29479001 351.864495,9.09722928 350.912788,9.09722928 C349.96108,9.09722928 349.194334,8.29479001 349.194334,7.29848704 C349.194334,6.30218416 349.934177,5.49903474 350.912788,5.49903474 C351.890726,5.5274397 352.631241,6.32987897 352.631241,7.29848704 Z M345.546235,10.9236663 L345.546235,11.3667832 C345.546235,11.3667832 344.727028,10.259701 342.982344,10.259701 C340.100992,10.259701 337.853887,12.5569498 337.853887,15.7397221 C337.853887,18.8947997 340.074089,21.2197433 342.982344,21.2197433 C344.753259,21.2197433 345.546235,20.0842562 345.546235,20.0842562 L345.546235,20.5550679 C345.546235,20.7766263 345.704965,20.9427952 345.916158,20.9427952 L348.057666,20.9427952 L348.057666,10.5366491 L345.916158,10.5366491 C345.704965,10.5366491 345.546235,10.7305127 345.546235,10.9236663 Z M345.546235,17.5938539 C345.150084,18.2024296 344.356434,18.7286308 343.4054,18.7286308 C341.713177,18.7286308 340.417779,17.6215487 340.417779,15.7397221 C340.417779,13.8571854 341.713177,12.7508134 343.4054,12.7508134 C344.330203,12.7508134 345.176314,13.3039994 345.546235,13.8848802 L345.546235,17.5938539 Z M349.64362,10.5366491 L352.181955,10.5366491 L352.181955,20.9427952 L349.64362,20.9427952 L349.64362,10.5366491 Z M387.551828,10.259701 C385.807144,10.259701 384.987263,11.3667832 384.987263,11.3667832 L384.987263,5.5274397 L382.449602,5.5274397 L382.449602,20.9427952 L384.591111,20.9427952 C384.802303,20.9427952 384.961033,20.7489315 384.961033,20.5550679 L384.961033,20.0842562 C384.961033,20.0842562 385.780913,21.2197433 387.525598,21.2197433 C390.40695,21.2197433 392.654054,18.8947997 392.654054,15.7397221 C392.654054,12.5846446 390.40695,10.259701 387.551828,10.259701 Z M387.128772,18.700936 C386.150835,18.700936 385.384088,18.1747347 384.987263,17.5661591 L384.987263,13.8571854 C385.384088,13.3039994 386.2302,12.7231186 387.128772,12.7231186 C388.820995,12.7231186 390.116392,13.8302007 390.116392,15.7120273 C390.116392,17.5938539 388.820995,18.700936 387.128772,18.700936 Z M381.127973,14.771114 L381.127973,20.9704899 L378.590313,20.9704899 L378.590313,15.0750468 C378.590313,13.359389 378.061661,12.6677289 376.633764,12.6677289 C375.86769,12.6677289 375.074713,13.0824409 374.572293,13.6917267 L374.572293,20.9427952 L372.034631,20.9427952 L372.034631,10.5366491 L374.043641,10.5366491 C374.254833,10.5366491 374.413563,10.7305127 374.413563,10.9236663 L374.413563,11.3667832 C375.154078,10.5643439 376.132016,10.259701 377.109954,10.259701 C378.22039,10.259701 379.145194,10.5920387 379.88571,11.2560039 C380.784283,12.0307484 381.127973,13.0270514 381.127973,14.771114 Z M365.875102,10.259701 C364.130418,10.259701 363.310537,11.3667832 363.310537,11.3667832 L363.310537,5.5274397 L360.772877,5.5274397 L360.772877,20.9427952 L362.914385,20.9427952 C363.125577,20.9427952 363.284306,20.7489315 363.284306,20.5550679 L363.284306,20.0842562 C363.284306,20.0842562 364.104188,21.2197433 365.848872,21.2197433 C368.730224,21.2197433 370.977328,18.8947997 370.977328,15.7397221 C371.003559,12.5846446 368.756454,10.259701 365.875102,10.259701 Z M365.452047,18.700936 C364.474109,18.700936 363.707363,18.1747347 363.310537,17.5661591 L363.310537,13.8571854 C363.707363,13.3039994 364.553474,12.7231186 365.452047,12.7231186 C367.143597,12.7231186 368.438995,13.8302007 368.438995,15.7120273 C368.438995,17.5938539 367.143597,18.700936 365.452047,18.700936 Z M358.578906,10.259701 C359.345652,10.259701 359.742477,10.398175 359.742477,10.398175 L359.742477,12.8615926 C359.742477,12.8615926 357.627199,12.1138328 356.30557,13.6917267 L356.30557,20.9704899 L353.767909,20.9704899 L353.767909,10.5366491 L355.908745,10.5366491 C356.120609,10.5366491 356.279339,10.7305127 356.279339,10.9236663 L356.279339,11.3667832 C356.754857,10.7851923 357.785929,10.259701 358.578906,10.259701 Z M332.223009,20.0018819 C332.091183,19.6695442 331.958684,19.3095117 331.826184,19.005579 C331.614993,18.5070724 331.403802,18.0362607 331.218168,17.5938539 L331.191938,17.5661591 C329.367888,13.4147786 327.412013,9.20800854 325.349869,5.05662795 L325.270504,4.89045916 C325.059312,4.47503704 324.847447,4.03263026 324.636256,3.58951332 C324.371931,3.091717 324.107605,2.56551563 323.684549,2.06771922 C322.838438,0.960637081 321.622405,0.351351351 320.327007,0.351351351 C319.005378,0.351351351 317.815577,0.960637081 316.943235,2.01232959 C316.547083,2.510126 316.255854,3.03632737 315.991527,3.53412378 C315.780336,3.97724063 315.568472,4.42035756 315.357281,4.83506953 L315.277916,5.00123841 C313.242675,9.15261891 311.259896,13.359389 309.435847,17.5107695 L309.409616,17.5661591 C309.224655,18.009276 309.012791,18.4793776 308.801599,18.9778842 C308.6691,19.2818169 308.537273,19.6141546 308.404774,19.9741871 C308.061084,20.9981847 307.955488,21.9667929 308.087315,22.9630958 C308.378544,25.0387861 309.700172,26.7821386 311.524221,27.5575932 C312.211603,27.8615259 312.925215,28 313.665058,28 C313.876922,28 314.141248,27.9723052 314.353112,27.9446104 C315.224781,27.8338311 316.124027,27.5298984 316.996369,27.0036971 C318.079903,26.3667165 319.110975,25.4542082 320.274546,24.1255676 C321.437444,25.4542082 322.494747,26.3667165 323.55205,27.0036971 C324.424392,27.5298984 325.323638,27.8338311 326.19598,27.9446104 C326.407171,27.9723052 326.671497,28 326.882689,28 C327.623204,28 328.36372,27.8615259 329.024197,27.5575932 C330.874478,26.7821386 332.169875,25.0110913 332.461104,22.9630958 C332.672296,21.9944877 332.5667,21.0258796 332.223009,20.0018819 Z M320.300776,21.4405915 C318.872879,19.5587649 317.948076,17.7877176 317.630616,16.2929081 C317.498789,15.6566377 317.471886,15.1027416 317.551251,14.6049452 C317.604385,14.1618283 317.763115,13.7748111 317.974307,13.4424734 C318.476727,12.6954237 319.322166,12.2246121 320.300776,12.2246121 C321.278715,12.2246121 322.151057,12.6677289 322.626574,13.4424734 C322.838438,13.7748111 322.997168,14.1618283 323.050302,14.6049452 C323.128994,15.1027416 323.102763,15.6843325 322.970937,16.2929081 C322.653477,17.7600228 321.728001,19.5310701 320.300776,21.4405915 Z M330.848246,22.7415374 C330.663286,24.1809572 329.73781,25.4258032 328.443085,25.9796993 C327.808164,26.2566474 327.121456,26.3397318 326.433402,26.2566474 C325.772924,26.173563 325.111774,25.9520045 324.424392,25.5372926 C323.473357,24.9833965 322.520978,24.1255676 321.411214,22.8523166 C323.155898,20.6104574 324.213201,18.562462 324.610025,16.7360251 C324.794986,15.8781962 324.821217,15.1027416 324.741852,14.3833867 C324.636256,13.6917267 324.398161,13.0547461 324.02824,12.5015601 C323.208359,11.2560039 321.834269,10.5366491 320.300776,10.5366491 C318.767956,10.5366491 317.393194,11.2836987 316.573314,12.5015601 C316.203392,13.0547461 315.965297,13.6917267 315.859701,14.3833867 C315.754105,15.1027416 315.780336,15.905891 315.991527,16.7360251 C316.388353,18.562462 317.472559,20.6381523 319.19034,22.8800113 C318.106806,24.1532624 317.128195,25.0110913 316.177161,25.5642773 C315.48978,25.9796993 314.82863,26.2012578 314.168151,26.2843422 C313.453867,26.3667165 312.766485,26.2566474 312.158469,26.0073941 C310.863071,25.4542082 309.938267,24.208652 309.753306,22.7692322 C309.673941,22.0775721 309.726403,21.385202 309.991401,20.6104574 C310.070766,20.3335094 310.202593,20.0572715 310.33442,19.7249338 C310.520053,19.282527 310.731245,18.8117153 310.942436,18.3409036 L310.969339,18.285514 C312.793388,14.1618283 314.749264,9.95505818 316.784505,5.85906723 L316.864543,5.69289843 C317.075734,5.27818646 317.286925,4.83506953 317.498789,4.42035756 C317.709981,3.97724063 317.948076,3.56181859 318.238633,3.20249617 C318.794187,2.53782081 319.534031,2.17849847 320.353911,2.17849847 C321.173119,2.17849847 321.913634,2.53782081 322.468517,3.20249617 C322.759073,3.56181859 322.997168,3.97724063 323.209032,4.42035756 C323.420223,4.83506953 323.631415,5.27818646 323.84328,5.69289843 L323.922645,5.85906723 C325.931654,9.982753 327.887529,14.189523 329.711579,18.3132088 L329.711579,18.3409036 C329.922771,18.7840205 330.108404,19.282527 330.319595,19.7249338 C330.452094,20.0572715 330.583921,20.3335094 330.663286,20.6104574 C330.874478,21.3298124 330.954515,22.0221825 330.848246,22.7415374 Z" id="logo-airbnb" fill="#A0A0A0" fill-rule="nonzero"></path>
                        <g id="logo-ge" transform="translate(453.000000, 0.000000)">
                            <path d="M8.85544,18.7167097 C8.37404,19.2315484 7.88394,19.8712258 7.82497333,20.631871 C7.79307333,21.0276774 7.88394,21.351871 8.08500667,21.5531613 C8.53547333,22.008 9.37164,21.7921935 9.86850667,21.4970323 C11.05944,20.7905806 11.60464,18.9150968 11.86564,17.5844516 C11.90624,17.3812258 12.02224,16.7347742 12.0067733,16.551871 C11.3977733,16.8528387 11.0671733,17.0212258 10.49684,17.3947742 C9.96420667,17.7431613 9.28947333,18.2502581 8.85544,18.7167097" id="Fill-1" fill="#A0A0A0"></path>
                            <path d="M11.7149367,10.8746129 C11.9305033,10.5852581 12.1180367,10.3055806 12.29977,9.95525806 C12.90587,8.78429032 12.23307,8.55009677 11.8715367,8.75816129 C11.1939033,9.14912903 10.63227,10.3742903 10.3954367,11.043 C10.2601033,11.4242903 10.1663367,11.8423548 10.14217,12.2913871 C10.5385033,12.2217097 11.42977,11.2588065 11.7149367,10.8746129" id="Fill-3" fill="#A0A0A0"></path>
                            <path d="M18.99036,10.4493871 C19.15856,10.2287419 19.9715267,9.21358065 19.5867933,8.8226129 C19.3277267,8.55841935 18.91206,8.83422581 18.75836,8.98809677 C18.6094933,9.13809677 18.3504267,9.52229032 18.2518267,9.71003226 C17.94636,10.2984194 17.76366,10.8664839 17.7559267,11.6735806 C18.01016,11.5506774 18.85986,10.6216452 18.99036,10.4493871" id="Fill-5" fill="#A0A0A0"></path>
                            <path d="M22.2916233,20.6796774 C21.8991567,21.633871 21.0446233,22.4641935 20.04219,22.8203226 C18.7884233,23.2664516 17.4621567,23.0390323 16.5051567,22.4303226 C14.5070567,21.1635484 14.01599,18.3087097 15.1286233,16.1632258 C15.3838233,15.6725806 15.7521233,15.243871 16.0846567,14.9274194 C16.41719,14.6080645 16.9875233,14.2122581 17.3645233,14.013871 C17.3239233,13.9306452 17.0339233,13.5658065 16.9691567,13.5106452 C16.6221233,13.7758065 16.0759567,14.1406452 15.70089,14.3883871 C15.0899567,14.7919355 14.3514233,15.2429032 13.7008567,15.6125806 C13.2890567,15.8467742 13.3122567,15.7606452 13.25909,16.2416129 C13.18659,16.8996774 13.16339,17.5287097 13.06189,18.1809677 C12.8666233,19.44 12.4780233,20.456129 11.87579,21.2941935 C11.34509,22.0354839 10.5456567,22.8251613 9.31412333,23.0158065 C7.91825667,23.2287097 6.93322333,22.5425806 6.61615667,21.5022581 C6.22369,20.2093548 6.92645667,19.0345161 7.50645667,18.333871 C8.42962333,17.22 10.0323567,16.3925806 11.3122233,15.7083871 C11.54519,15.5835484 11.7984567,15.4664516 12.0101567,15.3329032 C12.1706233,15.2312903 12.1764233,15.2303226 12.21799,15.0029032 C12.2421567,14.8732258 12.2692233,14.6719355 12.2721233,14.5345161 C12.20059,14.5654839 12.13389,14.6148387 12.0546233,14.6545161 C11.4775233,14.9448387 10.8849567,15.1770968 10.2092567,14.9574194 C9.59349,14.7570968 9.13045667,14.133871 8.97579,13.5493548 C8.45669,13.4777419 8.01202333,13.3170968 7.71815667,13.0432258 C7.43685667,12.7829032 7.18745667,12.4509677 7.06082333,11.9496774 C6.93515667,11.4580645 6.97189,10.8812903 7.13429,10.436129 C7.30152333,9.97548387 7.50259,9.64645161 8.10192333,9.65032258 C8.14735667,9.75096774 8.24982333,9.86612903 8.24692333,10.0025806 C8.24015667,10.3209677 7.78775667,11.4232258 8.29912333,12.0909677 C8.40352333,12.2254839 8.65099,12.4577419 8.92455667,12.4587097 C9.03282333,10.6983871 9.89025667,8.63903226 11.3760233,7.87741935 C11.9473233,7.58419355 12.71679,7.54645161 13.21269,7.92580645 C13.7414567,8.3283871 13.6844233,9.12967742 13.5355567,9.71806452 C13.25329,10.833871 12.4925233,11.8374194 11.6747233,12.5390323 C11.3228567,12.8409677 10.75929,13.2522581 10.2295567,13.4293548 C10.2595233,13.646129 10.4190233,13.8474194 10.53889,13.9354839 C10.71869,14.0680645 10.9526233,14.0641935 11.2068567,14.006129 C11.62059,13.9112903 11.98889,13.6374194 12.24119,13.4274194 C12.72549,13.0229032 12.59209,12.8922581 12.81249,12.3735484 C12.98359,11.9748387 13.1672567,11.6109677 13.4137567,11.3622581 C14.13199,10.6441935 15.14699,10.9509677 14.3456233,12.3416129 C14.0672233,12.8245161 13.5423233,13.2812903 13.4833567,13.5193548 C13.3934567,13.8745161 13.3702567,14.2219355 13.36639,14.5916129 C13.5742233,14.5596774 14.8782567,13.713871 15.12959,13.5551613 C15.55589,13.2870968 15.9860567,13.0093548 16.3814233,12.7045161 C16.5399567,12.5825806 16.5921567,12.5854839 16.5467233,12.1906452 C16.3466233,10.4670968 17.1586233,8.83354839 18.05569,8.14741935 C18.3089567,7.95387097 18.6279567,7.77096774 19.0107567,7.68967742 C19.7908567,7.52225806 20.5854567,7.85903226 20.75849,8.66516129 C21.0204567,9.8883871 19.9397233,11.1909677 19.1296567,11.8916129 C19.0088233,11.996129 18.88799,12.1103226 18.75749,12.2119355 L17.98319,12.8312903 C18.0769567,12.9841935 18.1523567,13.3006452 18.4346233,13.4806452 C18.60669,13.5919355 18.6463233,13.5425806 18.8638233,13.5019355 C19.0165567,13.47 19.17509,13.4409677 19.33749,13.4216129 C19.9126567,13.3558065 20.8638567,13.5454839 20.83389,14.1048387 C20.81939,14.4 20.5361567,14.5770968 20.2674233,14.6458065 C19.74059,14.7803226 19.2601567,14.6951613 18.74589,14.6593548 C18.3534233,14.6322581 17.87879,14.9022581 17.5907233,15.1132258 C16.6714233,15.7867742 16.1465233,16.7554839 16.03439,17.9593548 C15.9174233,19.2241935 16.2712233,20.403871 17.1576567,21.2080645 C18.0315233,22.0006452 19.5327567,22.0103226 20.36409,21.2235484 C20.55839,21.0396774 20.70049,20.8829032 20.8580567,20.6119355 C21.3046567,19.8464516 21.3607233,18.6987097 20.8957567,17.9903226 C20.03639,16.6819355 18.2045567,17.6758065 18.9566233,18.8709677 C19.1161233,19.1245161 19.3529567,19.3383871 19.40709,19.5251613 C19.58689,20.133871 18.8077567,20.4232258 18.1678233,19.9509677 C17.4892233,19.4477419 17.2949233,18.333871 17.6632233,17.5364516 C18.1726567,16.4312903 19.4921567,15.9464516 20.6299233,16.2880645 C21.2031567,16.4612903 21.5685567,16.74 21.9117233,17.2016129 C22.5700233,18.0793548 22.78269,19.4883871 22.2916233,20.6796774 M19.9416567,4.56870968 C19.2234233,4.3683871 18.60959,4.20193548 17.7995233,4.11387097 C17.0561567,4.03451613 16.1204233,4.10806452 15.52979,4.38774194 C14.83379,4.71774194 14.4326233,5.26935484 13.9154567,5.38258065 C12.09619,5.78129032 11.7124233,2.32354839 16.4964567,2.87225806 C16.87829,2.91580645 17.2572233,2.97193548 17.62069,3.05129032 C17.8826567,3.1083871 18.42689,3.31741935 18.6637233,3.30193548 C18.51969,3.17225806 18.4810233,3.14612903 18.2538567,3.07935484 C16.8821567,2.67096774 15.74439,2.51612903 14.2663567,2.52483871 C12.11939,2.5383871 9.90185667,3.16935484 8.15315667,4.19129032 C7.89312333,4.34419355 7.60505667,4.51935484 7.36822333,4.69741935 C6.83559,5.10096774 6.43442333,5.40290323 5.97042333,5.8916129 C5.76355667,6.1083871 5.55282333,6.33387097 5.35949,6.58645161 C4.91965667,7.1583871 4.69152333,7.4883871 4.33772333,8.15806452 C3.81282333,9.15 3.25215667,10.8009677 3.14485667,12.153871 C3.07815667,13.0035484 3.10039,13.7274194 3.40005667,14.4329032 C3.70359,15.1451613 4.19852333,15.4732258 4.38895667,16.0374194 C4.82975667,17.3429032 2.68569,18.1983871 2.01579,15.8932258 C1.65329,14.6429032 1.88915667,13.1496774 2.18495667,11.8848387 C2.21975667,11.7406452 2.30192333,11.486129 2.31255667,11.3593548 C2.16175667,11.4309677 2.11052333,11.5529032 2.06702333,11.7512903 C2.02739,11.9332258 1.97809,12.0909677 1.93652333,12.2651613 C1.14869,15.4751613 1.54792333,19.11 3.21349,21.9 C3.83989,22.9470968 4.65769,23.9380645 5.61565667,24.686129 C6.08352333,25.0509677 6.59585667,25.4148387 7.19712333,25.7129032 C8.31362333,26.2654839 9.73365667,26.7580645 11.1962233,26.9012903 C12.04689,26.9854839 12.76609,26.9148387 13.4553233,26.6235484 C14.0411233,26.3758065 14.5273567,25.7506452 15.0271233,25.6016129 C15.79949,25.3732258 16.4645567,26.0206452 16.3050567,26.8035484 C16.1784233,27.4209677 15.50659,27.8022581 14.8937233,27.9851613 C13.8845233,28.2851613 12.44709,28.1574194 11.38859,27.9358065 C11.2068567,27.8980645 10.4702567,27.6648387 10.3291233,27.7277419 C10.50989,27.993871 11.88159,28.2212903 12.3446233,28.2996774 C13.0976567,28.4225806 13.9763567,28.4777419 14.7593567,28.4535484 C16.3292233,28.4051613 17.8391567,28.136129 19.12869,27.6329032 C20.41919,27.1287097 21.51829,26.4803226 22.3960233,25.713871 C23.2650567,24.9570968 24.06449,24.0116129 24.6812233,22.7951613 C25.48549,21.206129 26.34969,18.3541935 25.5686233,16.5212903 C25.2950567,15.8806452 24.7150567,15.4606452 24.5826233,14.8954839 C24.48499,14.4764516 24.61259,14.1445161 24.8291233,13.9277419 C25.0369567,13.7216129 25.41009,13.56 25.80739,13.6848387 C26.4260567,13.8803226 26.7808233,14.4425806 26.9722233,15.1151613 C27.2757567,16.1777419 27.1578233,17.5035484 26.9229233,18.6029032 C26.8523567,18.9348387 26.76729,19.3364516 26.66869,19.6441935 C26.84269,19.6558065 26.8794233,19.4032258 26.9200233,19.2619355 C27.3260233,17.8587097 27.4584567,16.7496774 27.4439567,15.2409677 C27.4294567,13.7196774 27.07179,12.1316129 26.6097233,10.8841935 C25.4410233,7.73225806 23.00309,5.42225806 19.9416567,4.56870968" id="Fill-7" fill="#A0A0A0"></path>
                            <path d="M26.0874333,23.0200645 C25.7790667,23.4836129 25.3421333,24.0923226 24.9757667,24.5036129 L24.6732,24.8461935 C24.5349667,25.0078065 23.9018,25.6349032 23.693,25.8149032 C23.3894667,26.0800645 23.0801333,26.3374839 22.7369667,26.5939355 C22.1792,27.012 21.7606333,27.2674839 21.1603333,27.6110323 C20.2835667,28.1113548 19.1235667,28.5826452 18.0921333,28.8545806 C17.1496333,29.1032903 16.1443,29.2755484 15.0945,29.3113548 C12.9272333,29.385871 10.9533,29.0113548 9.2307,28.2845806 C8.04943333,27.7861935 6.92326667,27.1445806 5.9566,26.3703871 C5.54576667,26.0432903 4.96093333,25.5371613 4.59456667,25.1374839 C4.553,25.0939355 4.5327,25.0784516 4.48533333,25.0349032 L4.17986667,24.6942581 C4.03583333,24.5423226 3.91113333,24.3884516 3.77676667,24.222 C1.94686667,21.9826452 0.795566667,19.1132903 0.6873,16.0861935 C0.610933333,13.9649032 0.999533333,11.8997419 1.71196667,10.2129677 C2.1083,9.27522581 2.38283333,8.79716129 2.90676667,7.95329032 C3.12233333,7.60490323 3.3872,7.24393548 3.62886667,6.94006452 C4.09093333,6.3536129 4.52303333,5.8803871 5.07886667,5.36651613 L5.77293333,4.75683871 C8.02526667,2.90070968 10.7986333,1.82070968 13.9074333,1.662 C15.9857667,1.55651613 18.1240333,1.99490323 19.7577,2.69458065 C20.5909667,3.05167742 21.3053333,3.43393548 22.0187333,3.88780645 C22.2014333,4.00393548 22.359,4.11812903 22.5368667,4.24490323 C23.1062333,4.64845161 23.4552,4.96296774 23.9453,5.41296774 C24.5108,5.92974194 25.0734,6.56554839 25.5789667,7.24974194 C26.8859,9.01490323 27.8042333,11.0907097 28.1445,13.328129 C28.2208667,13.8429677 28.2643667,14.3607097 28.2991667,14.888129 C28.4325667,16.9107097 27.9434333,19.1713548 27.2764333,20.7565161 C26.9342333,21.5694194 26.5398333,22.3407097 26.0874333,23.0200645 M14.5,0.96716129 C6.49213333,0.96716129 0,7.46651613 0,15.4832903 C0,23.5010323 6.49213333,29.9994194 14.5,29.9994194 C22.5069,29.9994194 28.9990333,23.5010323 28.9990333,15.4832903 C28.9990333,7.46651613 22.5069,0.96716129 14.5,0.96716129" id="Fill-9" fill="#9F9E9F"></path>
                        </g>
                    </g>
                </g>
            </g>
        </g>
    </g>
</svg>